<?xml version="1.0" encoding="UTF-8" standalone="no"?>
<!-- Created with Inkscape (http://www.inkscape.org/) -->

<svg
   width="167.36121mm"
   height="167.36122mm"
   viewBox="0 0 167.36121 167.36122"
   version="1.1"
   id="svg1"
   inkscape:version="1.3.2 (091e20e, 2023-11-25, custom)"
   sodipodi:docname="icons.svg"
   xml:space="preserve"
   xmlns:inkscape="http://www.inkscape.org/namespaces/inkscape"
   xmlns:sodipodi="http://sodipodi.sourceforge.net/DTD/sodipodi-0.dtd"
   xmlns="http://www.w3.org/2000/svg"
   xmlns:svg="http://www.w3.org/2000/svg"><sodipodi:namedview
     id="namedview1"
     pagecolor="#ffffff"
     bordercolor="#000000"
     borderopacity="0.25"
     inkscape:showpageshadow="2"
     inkscape:pageopacity="0.0"
     inkscape:pagecheckerboard="0"
     inkscape:deskcolor="#d1d1d1"
     inkscape:document-units="mm"
     inkscape:zoom="0.37104026"
     inkscape:cx="-2172.271"
     inkscape:cy="712.86065"
     inkscape:window-width="1920"
     inkscape:window-height="1009"
     inkscape:window-x="-8"
     inkscape:window-y="-8"
     inkscape:window-maximized="1"
     inkscape:current-layer="layer1" /><defs
     id="defs1" /><g
     inkscape:label="Layer 1"
     inkscape:groupmode="layer"
     id="layer1"
     transform="translate(658.25087,-74.089498)"><rect
       style="opacity:1;fill:none;stroke:#808080;stroke-width:5;stroke-linejoin:bevel;stroke-dasharray:none"
       id="rect4"
       width="162.36122"
       height="162.36122"
       x="-655.75085"
       y="76.5895"
       ry="4.9871049"
       inkscape:export-filename="rect4.png"
       inkscape:export-xdpi="4.8565612"
       inkscape:export-ydpi="4.8565612" /><g
       style="fill:#808080"
       id="g4"
       transform="matrix(8.9107419,0,0,8.9107419,-645.85618,86.484176)"><path
         fill-rule="evenodd"
         clip-rule="evenodd"
         d="m 10.27,14.1 a 6.5,6.5 0 0 0 3.67,-3.45 q -1.24,0.21 -2.7,0.34 -0.31,1.83 -0.97,3.1 M 8,16 A 8,8 0 1 0 8,0 8,8 0 0 0 8,16 m 0.48,-1.52 a 7,7 0 0 1 -0.96,0 H 7.5 A 4,4 0 0 1 6.66,13.16 Q 6.28,12.27 6.03,11.08 a 40,40 0 0 0 3.92,0 q -0.25,1.2 -0.63,2.08 a 4,4 0 0 1 -0.84,1.31 z m 2.94,-4.76 q 1.66,-0.15 2.95,-0.43 a 7,7 0 0 0 0,-2.58 Q 13.07,6.44 11.42,6.28 a 18,18 0 0 1 0,3.44 M 10.15,6.18 a 17,17 0 0 1 0,3.64 39,39 0 0 1 -4.3,0 17,17 0 0 1 0,-3.64 39,39 0 0 1 4.3,0 m 1.1,-1.17 q 1.45,0.13 2.69,0.34 A 6.5,6.5 0 0 0 10.27,1.91 q 0.65,1.26 0.98,3.1 M 8.48,1.5 8.49,1.52 Q 8.9,1.89 9.33,2.83 9.71,3.72 9.96,4.91 a 40,40 0 0 0 -3.92,0 Q 6.29,3.71 6.67,2.83 a 4,4 0 0 1 0.85,-1.32 7,7 0 0 1 0.96,0 M 5.73,1.91 A 6.5,6.5 0 0 0 2.06,5.35 29,29 0 0 1 4.76,5.01 Q 5.07,3.18 5.73,1.91 M 4.58,6.28 Q 2.92,6.44 1.63,6.71 a 7,7 0 0 0 0,2.58 q 1.3,0.27 2.95,0.43 a 18,18 0 0 1 0,-3.44 m 0.17,4.71 Q 3.3,10.87 2.06,10.65 a 6.5,6.5 0 0 0 3.67,3.44 Q 5.08,12.82 4.75,10.99"
         fill="#666666"
         id="path1-0"
         clip-path="url(#clipPath2)"
         style="fill:#808080" /></g></g></svg>
